<?xml version="1.0" encoding="iso-8859-1"?>
<!-- Generator: Adobe Illustrator 17.0.0, SVG Export Plug-In . SVG Version: 6.00 Build 0)  -->
<!DOCTYPE svg PUBLIC "-//W3C//DTD SVG 1.1//EN" "http://www.w3.org/Graphics/SVG/1.1/DTD/svg11.dtd">
<svg version="1.1" id="Layer_1" xmlns="http://www.w3.org/2000/svg" xmlns:xlink="http://www.w3.org/1999/xlink" x="0px" y="0px"
	 width="512px" height="512px" viewBox="0 0 512 512" style="enable-background:new 0 0 512 512;" xml:space="preserve">
<path id="bg_24_" style="fill:#334D5C;" d="M512,255.998C512,397.382,397.387,512,256,512S0,397.382,0,255.998
	C0,114.619,114.613,0,256,0S512,114.619,512,255.998z"/>
<path style="fill:#939FA7;" d="M121.723,96.686c5.482-1.12,14.395-1.921,14.395-1.921s-9.037-0.7-14.483-1.78
	c0.664-3.085,2.567-7.912,2.567-7.912s-4.646,1.835-7.736,2.525c-1.039-5.514-1.706-14.443-1.706-14.443s-0.625,9.162-1.685,14.5
	c-3.07-0.641-8.008-2.582-8.008-2.582s1.766,4.478,2.484,7.563c-5.574,1.096-14.402,1.882-14.402,1.882s8.914,0.849,14.432,2.001
	c-0.693,3.087-2.514,7.688-2.514,7.688s4.759-1.876,7.85-2.548c1.018,5.4,1.593,14.467,1.593,14.467s0.777-9.102,1.905-14.453
	c3.091,0.683,7.787,2.534,7.787,2.534S122.449,99.773,121.723,96.686z"/>
<path style="fill:#939FA7;" d="M476.368,258.398c3.743-0.762,9.825-1.312,9.825-1.312s-6.169-0.477-9.885-1.213
	c0.453-2.104,1.75-5.4,1.75-5.4s-3.17,1.25-5.275,1.724c-0.712-3.764-1.168-9.855-1.168-9.855s-0.428,6.25-1.151,9.895
	c-2.1-0.435-5.461-1.763-5.461-1.763s1.2,3.055,1.694,5.16c-3.809,0.75-9.829,1.285-9.829,1.285s6.083,0.582,9.85,1.367
	c-0.475,2.108-1.715,5.246-1.715,5.246s3.245-1.279,5.351-1.738c0.697,3.684,1.09,9.873,1.09,9.873s0.533-6.214,1.305-9.864
	c2.107,0.468,5.311,1.73,5.311,1.73S476.868,260.506,476.368,258.398z"/>
<path style="fill:#939FA7;" d="M203.023,450.711c4.208-0.854,11.053-1.473,11.053-1.473s-6.939-0.537-11.121-1.364
	c0.51-2.367,1.969-6.074,1.969-6.074s-3.564,1.405-5.938,1.936c-0.798-4.233-1.312-11.085-1.312-11.085s-0.48,7.029-1.293,11.129
	c-2.357-0.488-6.148-1.979-6.148-1.979s1.355,3.436,1.908,5.806c-4.277,0.844-11.058,1.445-11.058,1.445s6.843,0.651,11.082,1.535
	c-0.536,2.373-1.933,5.902-1.933,5.902s3.66-1.439,6.023-1.953c0.787,4.141,1.23,11.103,1.23,11.103s0.596-6.988,1.461-11.095
	c2.371,0.527,5.977,1.945,5.977,1.945S203.584,453.088,203.023,450.711z"/>
<path style="fill:#2893C0;" d="M416.938,255.998c0,88.882-72.053,160.939-160.938,160.939c-88.885,0-160.938-72.058-160.938-160.939
	C95.063,167.121,167.115,95.06,256,95.06C344.885,95.06,416.938,167.121,416.938,255.998z"/>
<path style="fill:#2384AD;" d="M256,95.06c-21.781,0-42.537,4.351-61.482,12.19c12.994-3.553,26.654-5.488,40.773-5.488
	c85.184,0,154.238,69.055,154.238,154.236c0,85.187-69.055,154.244-154.238,154.244c-14.11,0-27.762-1.934-40.747-5.482
	c18.94,7.834,39.685,12.178,61.456,12.178c88.885,0,160.938-72.058,160.938-160.939C416.938,167.121,344.885,95.06,256,95.06z"/>
<path style="fill:#8CC6BA;" d="M133.776,151.363c9.543,13.894,23.954,31.74,38.99,38.904c26.163,12.464,31.771,4.981,15.572-4.361
	c-16.2-9.344-29.278-23.675-19.309-35.508c9.967-11.832,19.932-10.588,21.796-3.111c1.873,7.471,5.616,8.1,11.839-7.477
	c4.174-10.427,22.6-31.742,44.603-44.504C201.887,97.733,161.526,118.98,133.776,151.363z"/>
<path style="fill:#7EB3A7;" d="M235.291,101.762c0.685,0,1.357,0.045,2.043,0.054c3.197-2.319,6.509-4.522,9.927-6.506
	c-0.345,0.021-0.688,0.057-1.027,0.077c-2.364,0.143-4.722,0.318-7.054,0.562c-0.83,0.09-1.646,0.209-2.471,0.311
	c-1.867,0.223-3.734,0.455-5.583,0.741c-1.063,0.163-2.111,0.366-3.165,0.554c-1.584,0.279-3.172,0.56-4.744,0.881
	c-1.196,0.25-2.379,0.536-3.564,0.811c-1.405,0.324-2.811,0.646-4.204,1.01c-1.263,0.33-2.514,0.693-3.764,1.051
	c-1.295,0.371-2.59,0.741-3.877,1.146c-1.273,0.398-2.531,0.824-3.787,1.253c-1.254,0.429-2.501,0.86-3.742,1.319
	c-1.225,0.455-2.439,0.926-3.648,1.405c-0.596,0.237-1.182,0.488-1.773,0.729C207.75,103.67,221.291,101.762,235.291,101.762z"/>
<path style="fill:#8CC6BA;" d="M200.8,200.861c-4.765,6.408-13.08,26.166-0.625,43.603c12.458,17.445,25.541,26.163,24.296,50.46
	c-1.247,24.296-7.477,46.717,12.458,59.184c19.935,12.457,13.081,2.488,7.474-8.1c-5.604-10.594-3.114-26.163,11.839-36.129
	c14.95-9.971,31.603-31.228,33.018-49.843c1.539-20.268-2.492-26.786-18.067-38.621C255.619,209.582,218.864,176.571,200.8,200.861z
	"/>
<path style="fill:#8CC6BA;" d="M409.008,206.096c-12.895-39.556-40.664-72.385-76.739-91.84c-5.586,1.699-12.359,5.65-19.961,14.339
	c-17.439,19.938-19.312,25.547-4.982,47.349c14.322,21.798,39.246,49.834,56.066,47.964
	C377.821,222.303,399.575,222.517,409.008,206.096z"/>
<path style="fill:#7EB3A7;" d="M316.092,124.62c34.551,21.292,60.029,55.827,69.435,96.53c9.373-2.037,18.291-6.023,23.48-15.055
	v-0.009c-5.643-17.296-14.122-33.306-24.906-47.474c-0.024-0.032-0.042-0.059-0.066-0.089c-1.516-1.985-3.072-3.936-4.674-5.845
	c-0.066-0.086-0.141-0.164-0.209-0.247c-1.562-1.855-3.162-3.677-4.806-5.46c-0.122-0.135-0.247-0.26-0.369-0.388
	c-1.603-1.73-3.233-3.427-4.909-5.083c-0.174-0.176-0.361-0.339-0.539-0.515c-1.633-1.599-3.294-3.171-4.994-4.698
	c-0.232-0.212-0.477-0.411-0.709-0.617c-1.664-1.48-3.346-2.932-5.07-4.341c-0.289-0.238-0.59-0.458-0.878-0.693
	c-1.694-1.364-3.403-2.706-5.151-4.008c-0.307-0.224-0.625-0.435-0.932-0.658c-1.751-1.283-3.52-2.543-5.33-3.755
	c-0.301-0.202-0.613-0.387-0.911-0.586c-1.834-1.209-3.683-2.4-5.567-3.535c-0.256-0.154-0.524-0.295-0.783-0.452
	c-1.947-1.158-3.916-2.296-5.92-3.376c-0.006-0.004-0.009-0.01-0.015-0.012C327.627,115.666,322.163,118.68,316.092,124.62z"/>
<g>
</g>
<g>
</g>
<g>
</g>
<g>
</g>
<g>
</g>
<g>
</g>
<g>
</g>
<g>
</g>
<g>
</g>
<g>
</g>
<g>
</g>
<g>
</g>
<g>
</g>
<g>
</g>
<g>
</g>
</svg>
